ffmpeg started on 2025-05-26 at 18:43:24
Report written to "D:\Convert\FFMetrics\reports\ssim_report-6.txt"
Log level: 32
Command line:
ffmpeg -hide_banner -nostdin -i "G:\\\xc0\xed\xe8\xec\xe5\\\xce\xed\xe3\xee\xe8\xed\xe3\xe8\\!_34_\xc2\xe5\xf1\xed\xe0_2024\\DreamCast\\\xc7\xe0\xe1\xe2\xe5\xed\xe8\xe5 \xe1\xfd\xf2\xf2\xe5\xf0\xe8\\[DC] Boukyaku Battery - 06_Telegram_HEVC.mkv" -i "G:\\\xc0\xed\xe8\xec\xe5\\\xce\xed\xe3\xee\xe8\xed\xe3\xe8\\!_34_\xc2\xe5\xf1\xed\xe0_2024\\DreamCast\\\xc7\xe0\xe1\xe2\xe5\xed\xe8\xe5 \xe1\xfd\xf2\xf2\xe5\xf0\xe8\\[DC] Boukyaku Battery - 06_Telegram.mp4" -lavfi "[0:v]settb=AVTB,setpts=PTS-STARTPTS,format=pix_fmts=yuv420p10,fps=24000/1001,scale=1920:1080:flags=bicubic[main];[1:v]settb=AVTB,setpts=PTS-STARTPTS,format=pix_fmts=yuv420p,fps=24000/1001,scale=1920:1080:flags=bicubic[ref];[main][ref]ssim=eof_action=endall:stats_file='D\\:/Convert/FFMetrics/logs/ssim_logfile-6.txt'" -f null -
Input #0, matroska,webm, from 'G:\Аниме\Онгоинги\!_34_Весна_2024\DreamCast\Забвение бэттери\[DC] Boukyaku Battery - 06_Telegram_HEVC.mkv':
  Metadata:
    COMPATIBLE_BRANDS: isomiso2avc1mp41
    MAJOR_BRAND     : isom
    MINOR_VERSION   : 512
    ENCODER         : Lavf61.7.100
  Duration: 00:24:01.67, start: -0.021000, bitrate: 1066 kb/s
  Stream #0:0: Video: hevc (Main 10), yuv420p10le(tv, bt709, progressive), 1920x1080 [SAR 1:1 DAR 16:9], 23.98 fps, 23.98 tbr, 1k tbn (default)
      Metadata:
        HANDLER_NAME    : VideoHandler
        VENDOR_ID       : [0][0][0][0]
        ENCODER         : Lavc61.19.100 libx265
        BPS             : 870034
        DURATION        : 00:24:01.481708333
        NUMBER_OF_FRAMES: 34561
        NUMBER_OF_BYTES : 156767312
        _STATISTICS_WRITING_APP: mkvpropedit v66.0.0 ('Josie') 64-bit
        _STATISTICS_WRITING_DATE_UTC: 2025-05-26 11:04:41
        _STATISTICS_TAGS: BPS DURATION NUMBER_OF_FRAMES NUMBER_OF_BYTES
  Stream #0:1: Audio: aac (LC), 48000 Hz, stereo, fltp (default)
      Metadata:
        HANDLER_NAME    : SoundHandler
        VENDOR_ID       : [0][0][0][0]
        ENCODER         : Lavc61.19.100 aac
        BPS             : 192914
        DURATION        : 00:24:01.664000000
        NUMBER_OF_FRAMES: 67579
        NUMBER_OF_BYTES : 34764684
        _STATISTICS_WRITING_APP: mkvpropedit v66.0.0 ('Josie') 64-bit
        _STATISTICS_WRITING_DATE_UTC: 2025-05-26 11:04:41
        _STATISTICS_TAGS: BPS DURATION NUMBER_OF_FRAMES NUMBER_OF_BYTES
Input #1, mov,mp4,m4a,3gp,3g2,mj2, from 'G:\Аниме\Онгоинги\!_34_Весна_2024\DreamCast\Забвение бэттери\[DC] Boukyaku Battery - 06_Telegram.mp4':
  Metadata:
    major_brand     : isom
    minor_version   : 512
    compatible_brands: isomiso2avc1mp41
    encoder         : Lavf60.16.100
  Duration: 00:24:01.63, start: 0.000000, bitrate: 3839 kb/s
  Stream #1:0[0x1](und): Video: h264 (High) (avc1 / 0x31637661), yuv420p(tv, bt709, progressive), 1920x1080 [SAR 1:1 DAR 16:9], 3691 kb/s, 23.98 fps, 23.98 tbr, 24k tbn (default)
      Metadata:
        handler_name    : VideoHandler
        vendor_id       : [0][0][0][0]
        encoder         : Lavc60.31.102 h264_qsv
  Stream #1:1[0x2](und): Audio: aac (HE-AACv2) (mp4a / 0x6134706D), 48000 Hz, stereo, fltp, 144 kb/s (default)
      Metadata:
        handler_name    : SoundHandler
        vendor_id       : [0][0][0][0]
Stream mapping:
  Stream #0:0 (hevc) -> settb:default
  Stream #1:0 (h264) -> settb:default
  ssim:default -> Stream #0:0 (wrapped_avframe)
  Stream #0:1 -> #0:1 (aac (native) -> pcm_s16le (native))
Output #0, null, to 'pipe:':
  Metadata:
    COMPATIBLE_BRANDS: isomiso2avc1mp41
    MAJOR_BRAND     : isom
    MINOR_VERSION   : 512
    encoder         : Lavf61.7.100
  Stream #0:0: Video: wrapped_avframe, yuv420p10le(tv, bt709, progressive), 1920x1080 [SAR 1:1 DAR 16:9], q=2-31, 200 kb/s, 23.98 fps, 23.98 tbn
      Metadata:
        encoder         : Lavc61.19.100 wrapped_avframe
  Stream #0:1: Audio: pcm_s16le, 48000 Hz, stereo, s16, 1536 kb/s (default)
      Metadata:
        HANDLER_NAME    : SoundHandler
        VENDOR_ID       : [0][0][0][0]
        _STATISTICS_TAGS: BPS DURATION NUMBER_OF_FRAMES NUMBER_OF_BYTES
        BPS             : 192914
        DURATION        : 00:24:01.664000000
        NUMBER_OF_FRAMES: 67579
        NUMBER_OF_BYTES : 34764684
        _STATISTICS_WRITING_APP: mkvpropedit v66.0.0 ('Josie') 64-bit
        _STATISTICS_WRITING_DATE_UTC: 2025-05-26 11:04:41
        encoder         : Lavc61.19.100 pcm_s16le
frame=  183 fps=0.0 q=-0.0 size=N/A time=00:00:07.63 bitrate=N/A speed=  15x    frame=  466 fps=452 q=-0.0 size=N/A time=00:00:19.43 bitrate=N/A speed=18.9x    frame=  749 fps=483 q=-0.0 size=N/A time=00:00:31.23 bitrate=N/A speed=20.1x    frame= 1021 fps=496 q=-0.0 size=N/A time=00:00:42.58 bitrate=N/A speed=20.7x    frame= 1310 fps=507 q=-0.0 size=N/A time=00:00:54.63 bitrate=N/A speed=21.2x    frame= 1585 fps=513 q=-0.0 size=N/A time=00:01:06.10 bitrate=N/A speed=21.4x    frame= 1864 fps=516 q=-0.0 size=N/A time=00:01:17.74 bitrate=N/A speed=21.5x    frame= 2128 fps=517 q=-0.0 size=N/A time=00:01:28.75 bitrate=N/A speed=21.5x    frame= 2401 fps=517 q=-0.0 size=N/A time=00:01:40.14 bitrate=N/A speed=21.6x    frame= 2652 fps=515 q=-0.0 size=N/A time=00:01:50.61 bitrate=N/A speed=21.5x    frame= 2911 fps=513 q=-0.0 size=N/A time=00:02:01.41 bitrate=N/A speed=21.4x    frame= 3188 fps=516 q=-0.0 size=N/A time=00:02:12.96 bitrate=N/A speed=21.5x    frame= 3430 fps=512 q=-0.0 size=N/A time=00:02:23.05 bitrate=N/A speed=21.4x    frame= 3692 fps=512 q=-0.0 size=N/A time=00:02:33.98 bitrate=N/A speed=21.3x    frame= 3900 fps=505 q=-0.0 size=N/A time=00:02:42.66 bitrate=N/A speed=21.1x    frame= 4112 fps=499 q=-0.0 size=N/A time=00:02:51.50 bitrate=N/A speed=20.8x    frame= 4329 fps=494 q=-0.0 size=N/A time=00:03:00.55 bitrate=N/A speed=20.6x    frame= 4524 fps=487 q=-0.0 size=N/A time=00:03:08.68 bitrate=N/A speed=20.3x    frame= 4716 fps=482 q=-0.0 size=N/A time=00:03:16.69 bitrate=N/A speed=20.1x    frame= 4938 fps=479 q=-0.0 size=N/A time=00:03:25.95 bitrate=N/A speed=  20x    frame= 5124 fps=473 q=-0.0 size=N/A time=00:03:33.71 bitrate=N/A speed=19.7x    frame= 5336 fps=471 q=-0.0 size=N/A time=00:03:42.55 bitrate=N/A speed=19.6x    frame= 5569 fps=470 q=-0.0 size=N/A time=00:03:52.27 bitrate=N/A speed=19.6x    frame= 5783 fps=468 q=-0.0 size=N/A time=00:04:01.19 bitrate=N/A speed=19.5x    frame= 6033 fps=468 q=-0.0 size=N/A time=00:04:11.62 bitrate=N/A speed=19.5x    frame= 6299 fps=470 q=-0.0 size=N/A time=00:04:22.72 bitrate=N/A speed=19.6x    frame= 6533 fps=469 q=-0.0 size=N/A time=00:04:32.48 bitrate=N/A speed=19.6x    frame= 6744 fps=467 q=-0.0 size=N/A time=00:04:41.28 bitrate=N/A speed=19.5x    frame= 7037 fps=471 q=-0.0 size=N/A time=00:04:53.50 bitrate=N/A speed=19.6x    frame= 7292 fps=472 q=-0.0 size=N/A time=00:05:04.13 bitrate=N/A speed=19.7x    frame= 7574 fps=474 q=-0.0 size=N/A time=00:05:15.89 bitrate=N/A speed=19.8x    frame= 7839 fps=475 q=-0.0 size=N/A time=00:05:26.95 bitrate=N/A speed=19.8x    frame= 8122 fps=477 q=-0.0 size=N/A time=00:05:38.75 bitrate=N/A speed=19.9x    frame= 8409 fps=480 q=-0.0 size=N/A time=00:05:50.72 bitrate=N/A speed=  20x    frame= 8678 fps=481 q=-0.0 size=N/A time=00:06:01.98 bitrate=N/A speed=20.1x    frame= 8965 fps=483 q=-0.0 size=N/A time=00:06:13.91 bitrate=N/A speed=20.1x    frame= 9223 fps=484 q=-0.0 size=N/A time=00:06:24.67 bitrate=N/A speed=20.2x    frame= 9496 fps=485 q=-0.0 size=N/A time=00:06:36.06 bitrate=N/A speed=20.2x    frame= 9740 fps=485 q=-0.0 size=N/A time=00:06:46.23 bitrate=N/A speed=20.2x    frame=10032 fps=486 q=-0.0 size=N/A time=00:06:58.41 bitrate=N/A speed=20.3x    frame=10297 fps=487 q=-0.0 size=N/A time=00:07:09.47 bitrate=N/A speed=20.3x    frame=10538 fps=487 q=-0.0 size=N/A time=00:07:19.52 bitrate=N/A speed=20.3x    frame=10727 fps=484 q=-0.0 size=N/A time=00:07:27.40 bitrate=N/A speed=20.2x    frame=10972 fps=484 q=-0.0 size=N/A time=00:07:37.62 bitrate=N/A speed=20.2x    frame=11242 fps=485 q=-0.0 size=N/A time=00:07:48.88 bitrate=N/A speed=20.2x    frame=11514 fps=486 q=-0.0 size=N/A time=00:08:00.22 bitrate=N/A speed=20.2x    frame=11803 fps=487 q=-0.0 size=N/A time=00:08:12.28 bitrate=N/A speed=20.3x    frame=12079 fps=488 q=-0.0 size=N/A time=00:08:23.79 bitrate=N/A speed=20.4x    frame=12361 fps=489 q=-0.0 size=N/A time=00:08:35.55 bitrate=N/A speed=20.4x    frame=12628 fps=490 q=-0.0 size=N/A time=00:08:46.69 bitrate=N/A speed=20.4x    frame=12907 fps=491 q=-0.0 size=N/A time=00:08:58.32 bitrate=N/A speed=20.5x    frame=13174 fps=491 q=-0.0 size=N/A time=00:09:09.46 bitrate=N/A speed=20.5x    frame=13412 fps=491 q=-0.0 size=N/A time=00:09:19.39 bitrate=N/A speed=20.5x    frame=13668 fps=491 q=-0.0 size=N/A time=00:09:30.06 bitrate=N/A speed=20.5x    frame=13951 fps=492 q=-0.0 size=N/A time=00:09:41.87 bitrate=N/A speed=20.5x    frame=14224 fps=493 q=-0.0 size=N/A time=00:09:53.25 bitrate=N/A speed=20.6x    frame=14493 fps=493 q=-0.0 size=N/A time=00:10:04.47 bitrate=N/A speed=20.6x    frame=14727 fps=493 q=-0.0 size=N/A time=00:10:14.23 bitrate=N/A speed=20.5x    frame=14995 fps=493 q=-0.0 size=N/A time=00:10:25.41 bitrate=N/A speed=20.6x    frame=15240 fps=493 q=-0.0 size=N/A time=00:10:35.63 bitrate=N/A speed=20.6x    frame=15498 fps=493 q=-0.0 size=N/A time=00:10:46.39 bitrate=N/A speed=20.6x    frame=15725 fps=492 q=-0.0 size=N/A time=00:10:55.86 bitrate=N/A speed=20.5x    frame=15961 fps=491 q=-0.0 size=N/A time=00:11:05.70 bitrate=N/A speed=20.5x    frame=16194 fps=491 q=-0.0 size=N/A time=00:11:15.42 bitrate=N/A speed=20.5x    frame=16430 fps=490 q=-0.0 size=N/A time=00:11:25.26 bitrate=N/A speed=20.4x    frame=16651 fps=489 q=-0.0 size=N/A time=00:11:34.48 bitrate=N/A speed=20.4x    frame=16885 fps=489 q=-0.0 size=N/A time=00:11:44.24 bitrate=N/A speed=20.4x    frame=17114 fps=488 q=-0.0 size=N/A time=00:11:53.79 bitrate=N/A speed=20.4x    frame=17346 fps=488 q=-0.0 size=N/A time=00:12:03.47 bitrate=N/A speed=20.3x    frame=17579 fps=487 q=-0.0 size=N/A time=00:12:13.19 bitrate=N/A speed=20.3x    frame=17812 fps=487 q=-0.0 size=N/A time=00:12:22.90 bitrate=N/A speed=20.3x    frame=18057 fps=486 q=-0.0 size=N/A time=00:12:33.12 bitrate=N/A speed=20.3x    frame=18266 fps=485 q=-0.0 size=N/A time=00:12:41.84 bitrate=N/A speed=20.2x    frame=18509 fps=485 q=-0.0 size=N/A time=00:12:51.97 bitrate=N/A speed=20.2x    frame=18787 fps=486 q=-0.0 size=N/A time=00:13:03.57 bitrate=N/A speed=20.3x    frame=19048 fps=486 q=-0.0 size=N/A time=00:13:14.46 bitrate=N/A speed=20.3x    frame=19304 fps=486 q=-0.0 size=N/A time=00:13:25.13 bitrate=N/A speed=20.3x    frame=19563 fps=486 q=-0.0 size=N/A time=00:13:35.94 bitrate=N/A speed=20.3x    frame=19820 fps=487 q=-0.0 size=N/A time=00:13:46.65 bitrate=N/A speed=20.3x    frame=20065 fps=486 q=-0.0 size=N/A time=00:13:56.87 bitrate=N/A speed=20.3x    frame=20322 fps=487 q=-0.0 size=N/A time=00:14:07.59 bitrate=N/A speed=20.3x    frame=20602 fps=487 q=-0.0 size=N/A time=00:14:19.27 bitrate=N/A speed=20.3x    frame=20888 fps=488 q=-0.0 size=N/A time=00:14:31.20 bitrate=N/A speed=20.4x    frame=21173 fps=489 q=-0.0 size=N/A time=00:14:43.09 bitrate=N/A speed=20.4x    frame=21457 fps=489 q=-0.0 size=N/A time=00:14:54.93 bitrate=N/A speed=20.4x    frame=21738 fps=490 q=-0.0 size=N/A time=00:15:06.65 bitrate=N/A speed=20.4x    frame=21988 fps=490 q=-0.0 size=N/A time=00:15:17.08 bitrate=N/A speed=20.4x    frame=22254 fps=490 q=-0.0 size=N/A time=00:15:28.17 bitrate=N/A speed=20.4x    frame=22502 fps=490 q=-0.0 size=N/A time=00:15:38.52 bitrate=N/A speed=20.4x    frame=22765 fps=490 q=-0.0 size=N/A time=00:15:49.49 bitrate=N/A speed=20.5x    frame=23031 fps=491 q=-0.0 size=N/A time=00:16:00.58 bitrate=N/A speed=20.5x    frame=23285 fps=491 q=-0.0 size=N/A time=00:16:11.17 bitrate=N/A speed=20.5x    frame=23537 fps=491 q=-0.0 size=N/A time=00:16:21.68 bitrate=N/A speed=20.5x    frame=23824 fps=491 q=-0.0 size=N/A time=00:16:33.65 bitrate=N/A speed=20.5x    frame=24086 fps=492 q=-0.0 size=N/A time=00:16:44.58 bitrate=N/A speed=20.5x    frame=24356 fps=492 q=-0.0 size=N/A time=00:16:55.84 bitrate=N/A speed=20.5x    frame=24642 fps=493 q=-0.0 size=N/A time=00:17:07.77 bitrate=N/A speed=20.5x    frame=24907 fps=493 q=-0.0 size=N/A time=00:17:18.82 bitrate=N/A speed=20.6x    frame=25185 fps=493 q=-0.0 size=N/A time=00:17:30.42 bitrate=N/A speed=20.6x    frame=25454 fps=494 q=-0.0 size=N/A time=00:17:41.64 bitrate=N/A speed=20.6x    frame=25723 fps=494 q=-0.0 size=N/A time=00:17:52.86 bitrate=N/A speed=20.6x    frame=25979 fps=494 q=-0.0 size=N/A time=00:18:03.54 bitrate=N/A speed=20.6x    frame=26264 fps=494 q=-0.0 size=N/A time=00:18:15.42 bitrate=N/A speed=20.6x    frame=26476 fps=494 q=-0.0 size=N/A time=00:18:24.26 bitrate=N/A speed=20.6x    frame=26738 fps=494 q=-0.0 size=N/A time=00:18:35.19 bitrate=N/A speed=20.6x    frame=27000 fps=494 q=-0.0 size=N/A time=00:18:46.12 bitrate=N/A speed=20.6x    frame=27263 fps=494 q=-0.0 size=N/A time=00:18:57.09 bitrate=N/A speed=20.6x    frame=27536 fps=494 q=-0.0 size=N/A time=00:19:08.48 bitrate=N/A speed=20.6x    frame=27818 fps=495 q=-0.0 size=N/A time=00:19:20.24 bitrate=N/A speed=20.6x    frame=28092 fps=495 q=-0.0 size=N/A time=00:19:31.67 bitrate=N/A speed=20.7x    frame=28305 fps=494 q=-0.0 size=N/A time=00:19:40.55 bitrate=N/A speed=20.6x    frame=28572 fps=495 q=-0.0 size=N/A time=00:19:51.69 bitrate=N/A speed=20.6x    frame=28819 fps=495 q=-0.0 size=N/A time=00:20:01.99 bitrate=N/A speed=20.6x    frame=29100 fps=495 q=-0.0 size=N/A time=00:20:13.71 bitrate=N/A speed=20.6x    frame=29376 fps=495 q=-0.0 size=N/A time=00:20:25.22 bitrate=N/A speed=20.7x    frame=29656 fps=496 q=-0.0 size=N/A time=00:20:36.90 bitrate=N/A speed=20.7x    frame=29905 fps=496 q=-0.0 size=N/A time=00:20:47.28 bitrate=N/A speed=20.7x    frame=30104 fps=495 q=-0.0 size=N/A time=00:20:55.58 bitrate=N/A speed=20.6x    frame=30340 fps=494 q=-0.0 size=N/A time=00:21:05.43 bitrate=N/A speed=20.6x    frame=30595 fps=494 q=-0.0 size=N/A time=00:21:16.06 bitrate=N/A speed=20.6x    frame=30876 fps=495 q=-0.0 size=N/A time=00:21:27.78 bitrate=N/A speed=20.6x    frame=31165 fps=495 q=-0.0 size=N/A time=00:21:39.84 bitrate=N/A speed=20.7x    frame=31431 fps=496 q=-0.0 size=N/A time=00:21:50.93 bitrate=N/A speed=20.7x    frame=31702 fps=496 q=-0.0 size=N/A time=00:22:02.23 bitrate=N/A speed=20.7x    frame=31949 fps=496 q=-0.0 size=N/A time=00:22:12.53 bitrate=N/A speed=20.7x    frame=32169 fps=495 q=-0.0 size=N/A time=00:22:21.71 bitrate=N/A speed=20.6x    frame=32390 fps=494 q=-0.0 size=N/A time=00:22:30.93 bitrate=N/A speed=20.6x    frame=32613 fps=494 q=-0.0 size=N/A time=00:22:40.23 bitrate=N/A speed=20.6x    frame=32808 fps=493 q=-0.0 size=N/A time=00:22:48.36 bitrate=N/A speed=20.6x    frame=32968 fps=492 q=-0.0 size=N/A time=00:22:55.04 bitrate=N/A speed=20.5x    frame=33169 fps=491 q=-0.0 size=N/A time=00:23:03.42 bitrate=N/A speed=20.5x    frame=33333 fps=490 q=-0.0 size=N/A time=00:23:10.26 bitrate=N/A speed=20.4x    frame=33534 fps=489 q=-0.0 size=N/A time=00:23:18.64 bitrate=N/A speed=20.4x    frame=33686 fps=488 q=-0.0 size=N/A time=00:23:24.98 bitrate=N/A speed=20.3x    frame=33857 fps=486 q=-0.0 size=N/A time=00:23:32.11 bitrate=N/A speed=20.3x    frame=34056 fps=486 q=-0.0 size=N/A time=00:23:40.41 bitrate=N/A speed=20.3x    frame=34267 fps=485 q=-0.0 size=N/A time=00:23:49.21 bitrate=N/A speed=20.2x    frame=34497 fps=485 q=-0.0 size=N/A time=00:23:58.81 bitrate=N/A speed=20.2x    [Parsed_ssim_10 @ 000002012e5f3e00] SSIM Y:0.994342 (22.473712) U:0.993460 (21.844241) V:0.993078 (21.597462) All:0.993985 (22.207337)
[out#0/null @ 0000020120a24e80] video:14850KiB audio:270316KiB subtitle:0KiB other streams:0KiB global headers:0KiB muxing overhead: unknown
frame=34561 fps=485 q=-0.0 Lsize=N/A time=00:24:01.48 bitrate=N/A speed=20.2x    
